<svg id="svg" version="1.1" width="400" height="400" xmlns="http://www.w3.org/2000/svg" xmlns:xlink="http://www.w3.org/1999/xlink" style="display: block;"><g id="svgg"><path id="path0" d="M164.400 0.800 C 164.400 1.555,164.127 1.601,159.500 1.618 C 151.890 1.646,148.741 2.134,149.392 3.186 C 150.020 4.204,148.448 4.729,144.274 4.895 C 139.968 5.067,139.942 5.073,138.674 6.417 C 137.787 7.357,137.704 7.529,138.400 6.984 L 139.400 6.200 138.700 7.032 C 138.162 7.670,137.467 7.884,135.700 7.952 C 131.234 8.125,130.470 8.337,129.101 9.788 C 127.954 11.004,127.540 11.177,125.600 11.248 C 122.887 11.347,121.373 12.057,121.039 13.386 C 120.813 14.286,120.573 14.403,118.892 14.431 C 115.662 14.483,114.136 15.136,114.575 16.279 C 114.813 16.899,114.489 17.053,112.200 17.413 C 109.111 17.898,108.400 18.274,108.400 19.425 C 108.400 20.197,108.134 20.409,106.900 20.621 C 103.651 21.179,102.994 21.458,102.489 22.499 C 102.209 23.079,101.579 23.660,101.089 23.790 C 98.281 24.541,97.135 24.997,96.694 25.543 C 96.302 26.028,96.302 26.092,96.695 25.856 C 97.023 25.659,97.116 25.753,96.971 26.131 C 96.850 26.446,96.110 26.807,95.326 26.934 C 93.692 27.200,92.400 28.207,92.400 29.216 C 92.400 29.755,91.913 29.969,90.200 30.183 C 87.599 30.508,86.510 31.366,86.753 32.900 C 86.779 33.065,85.990 33.200,85.000 33.200 C 83.210 33.200,83.200 33.207,83.200 34.600 C 83.200 35.924,83.124 36.003,81.800 36.050 C 81.030 36.078,80.220 36.145,80.000 36.200 C 79.780 36.255,79.285 36.325,78.900 36.356 C 77.728 36.450,77.165 37.016,77.032 38.236 C 76.928 39.182,76.738 39.375,76.018 39.269 C 74.824 39.093,73.651 40.225,73.783 41.427 C 73.874 42.250,73.718 42.400,72.778 42.400 C 70.890 42.400,70.400 42.780,70.400 44.243 C 70.400 45.542,70.337 45.600,68.915 45.600 C 67.869 45.600,67.189 45.872,66.615 46.519 C 66.167 47.024,65.980 47.159,66.200 46.819 C 66.545 46.286,66.506 46.273,65.924 46.729 C 65.552 47.020,65.340 47.499,65.453 47.793 C 65.570 48.098,65.303 48.440,64.831 48.590 C 64.377 48.734,63.734 49.123,63.402 49.455 C 63.005 49.852,62.800 49.894,62.800 49.580 C 62.800 49.211,62.670 49.210,62.228 49.577 C 61.913 49.838,61.713 50.355,61.784 50.726 C 61.934 51.515,61.254 52.230,60.400 52.181 C 59.594 52.135,58.337 52.771,58.542 53.120 C 58.961 53.834,57.976 55.105,56.826 55.335 C 55.836 55.533,55.533 55.836,55.335 56.826 C 55.105 57.976,53.834 58.961,53.120 58.542 C 52.771 58.337,52.135 59.594,52.181 60.400 C 52.230 61.254,51.515 61.934,50.726 61.784 C 50.355 61.713,49.838 61.913,49.577 62.228 C 49.210 62.670,49.211 62.800,49.580 62.800 C 49.894 62.800,49.852 63.005,49.455 63.402 C 49.123 63.734,48.734 64.377,48.590 64.831 C 48.440 65.303,48.098 65.570,47.793 65.453 C 47.499 65.340,47.020 65.552,46.729 65.924 C 46.273 66.506,46.286 66.545,46.819 66.200 C 47.159 65.980,47.024 66.167,46.519 66.615 C 45.872 67.189,45.600 67.869,45.600 68.915 C 45.600 70.337,45.542 70.400,44.243 70.400 C 42.780 70.400,42.400 70.890,42.400 72.778 C 42.400 73.731,42.255 73.874,41.387 73.779 C 40.260 73.655,39.059 75.041,39.275 76.216 C 39.365 76.708,39.078 76.933,38.236 77.028 C 37.016 77.165,36.450 77.729,36.356 78.900 C 36.325 79.285,36.255 79.780,36.200 80.000 C 36.145 80.220,36.078 81.030,36.050 81.800 C 36.005 83.066,35.889 83.200,34.843 83.200 C 33.584 83.200,33.200 83.768,33.200 85.633 C 33.200 86.275,33.065 86.779,32.900 86.753 C 31.366 86.510,30.508 87.599,30.183 90.200 C 30.032 91.410,29.794 92.414,29.654 92.431 C 27.695 92.667,27.324 93.058,26.953 95.275 C 26.817 96.087,26.448 96.850,26.132 96.971 C 25.771 97.109,25.663 97.021,25.841 96.734 C 25.997 96.481,25.948 96.385,25.731 96.519 C 25.266 96.806,24.154 99.352,23.827 100.879 C 23.691 101.514,23.152 102.173,22.521 102.479 C 21.456 102.995,21.181 103.635,20.621 106.900 C 20.409 108.134,20.197 108.400,19.425 108.400 C 18.274 108.400,17.898 109.111,17.413 112.200 C 17.053 114.489,16.899 114.813,16.279 114.575 C 15.136 114.136,14.483 115.662,14.431 118.892 C 14.403 120.573,14.286 120.813,13.386 121.039 C 12.057 121.373,11.347 122.887,11.248 125.600 C 11.177 127.540,11.004 127.954,9.788 129.101 C 8.337 130.470,8.125 131.234,7.952 135.700 C 7.884 137.467,7.670 138.162,7.032 138.700 L 6.200 139.400 6.984 138.400 C 7.529 137.704,7.357 137.787,6.417 138.674 C 5.073 139.942,5.067 139.968,4.895 144.274 C 4.729 148.448,4.204 150.020,3.186 149.392 C 2.134 148.741,1.646 151.890,1.618 159.500 C 1.601 164.127,1.555 164.400,0.800 164.400 C 0.006 164.400,0.000 164.667,0.000 200.000 C 0.000 235.333,0.006 235.600,0.800 235.600 C 1.558 235.600,1.601 235.876,1.627 240.900 C 1.651 245.648,1.769 247.758,2.095 249.252 C 2.268 250.045,3.367 251.074,3.860 250.904 C 4.619 250.642,4.763 251.292,4.830 255.303 C 4.894 259.079,5.429 261.092,6.318 260.905 C 6.567 260.852,6.676 261.059,6.559 261.363 C 6.442 261.668,6.693 262.161,7.117 262.458 C 7.739 262.896,7.924 263.631,8.076 266.273 C 8.235 269.039,8.415 269.705,9.232 270.566 C 10.323 271.716,11.193 271.976,10.349 270.900 C 9.863 270.281,9.873 270.257,10.437 270.697 C 10.883 271.044,11.099 271.963,11.157 273.761 C 11.307 278.405,11.555 279.077,13.209 279.327 C 14.133 279.466,14.213 279.667,14.400 282.306 C 14.623 285.460,14.653 285.522,16.024 285.728 C 16.764 285.840,17.030 286.157,17.124 287.038 C 17.429 289.893,17.974 291.044,19.295 291.626 C 20.493 292.153,20.624 292.393,20.893 294.561 C 21.179 296.862,22.027 298.400,23.011 298.400 C 23.298 298.400,23.580 299.183,23.697 300.300 C 24.040 303.567,24.502 304.400,25.971 304.400 C 26.633 304.400,26.800 304.652,26.800 305.653 C 26.800 307.162,28.141 309.464,29.220 309.806 C 29.760 309.978,30.000 310.415,30.000 311.227 C 30.000 312.824,30.501 313.946,31.200 313.914 C 32.910 313.837,33.200 314.041,33.200 315.325 C 33.200 316.310,33.532 316.952,34.494 317.825 C 35.574 318.806,35.657 318.835,34.994 318.000 L 34.200 317.000 35.084 317.748 C 35.570 318.159,35.945 318.609,35.917 318.748 C 35.560 320.499,37.049 323.200,38.371 323.200 C 39.142 323.200,39.362 323.648,39.307 325.103 C 39.296 325.380,39.763 325.706,40.344 325.827 C 41.985 326.170,42.563 326.596,42.802 327.638 C 42.934 328.216,43.530 328.825,44.295 329.165 C 45.069 329.509,45.726 330.187,45.974 330.896 C 46.229 331.629,46.830 332.232,47.590 332.519 C 48.627 332.910,48.807 333.192,48.850 334.488 C 48.898 335.942,48.986 336.572,49.200 337.000 C 49.255 337.110,49.323 337.365,49.350 337.567 C 49.378 337.768,49.564 338.083,49.764 338.267 C 49.978 338.463,50.007 338.353,49.834 338.000 C 49.673 337.670,49.812 337.733,50.144 338.140 C 50.475 338.547,50.920 338.773,51.131 338.642 C 51.467 338.435,51.929 339.025,51.881 339.600 C 51.818 340.363,52.972 341.534,53.986 341.737 C 54.934 341.927,55.200 342.191,55.200 342.941 C 55.200 344.061,55.775 344.628,57.302 345.011 C 58.033 345.195,58.400 345.549,58.400 346.072 C 58.400 347.073,59.216 347.888,60.552 348.224 C 61.215 348.390,61.600 348.761,61.600 349.234 C 61.600 350.066,62.834 350.974,64.486 351.356 C 65.229 351.529,65.500 351.795,65.345 352.199 C 65.199 352.579,65.560 353.042,66.357 353.495 C 67.038 353.883,67.596 354.335,67.597 354.500 C 67.599 354.665,68.230 354.800,69.000 354.800 C 70.287 354.800,70.400 354.896,70.400 355.992 C 70.400 356.942,70.603 357.227,71.400 357.392 C 71.950 357.507,72.838 357.690,73.373 357.801 C 73.909 357.911,74.462 358.364,74.602 358.808 C 74.743 359.251,75.495 359.880,76.274 360.205 C 77.052 360.530,78.348 361.517,79.153 362.398 C 80.216 363.561,80.935 364.000,81.775 364.000 C 82.412 364.000,82.815 364.118,82.670 364.263 C 82.525 364.408,82.607 364.768,82.852 365.063 C 83.097 365.358,83.180 365.600,83.035 365.600 C 82.890 365.600,82.964 365.958,83.198 366.396 C 83.432 366.834,83.754 367.173,83.912 367.149 C 85.358 366.931,86.001 367.293,86.311 368.500 C 86.611 369.668,86.848 369.840,88.657 370.200 C 89.892 370.445,90.609 370.782,90.512 371.070 C 90.282 371.751,93.192 373.600,94.493 373.600 C 95.138 373.600,95.600 373.818,95.600 374.124 C 95.600 375.692,96.795 376.292,100.068 376.367 C 101.390 376.397,101.565 376.529,101.818 377.700 C 102.189 379.407,102.537 379.587,105.500 379.594 C 107.453 379.599,108.000 379.731,108.000 380.200 C 108.000 381.261,108.046 381.388,108.690 382.100 C 109.172 382.632,109.958 382.800,111.964 382.800 C 114.497 382.800,114.626 382.848,115.121 383.967 C 115.579 385.001,115.945 385.189,118.338 385.617 C 120.602 386.021,121.047 386.232,121.099 386.923 C 121.200 388.259,122.375 388.751,126.200 389.058 C 128.322 389.229,128.739 389.411,129.800 390.626 C 130.972 391.968,131.071 392.000,134.077 392.000 C 136.754 392.000,137.232 392.110,137.745 392.843 C 138.118 393.376,138.532 393.573,138.868 393.379 C 139.161 393.210,139.274 393.212,139.119 393.383 C 138.836 393.697,139.859 394.957,140.471 395.050 C 140.652 395.078,142.606 395.123,144.813 395.150 C 148.259 395.193,148.856 395.299,149.041 395.900 C 149.725 398.113,149.681 398.101,157.700 398.290 C 163.631 398.430,164.000 398.484,164.000 399.219 C 164.000 399.988,164.559 400.000,199.800 400.000 C 235.333 400.000,235.600 399.994,235.600 399.200 C 235.600 398.433,235.867 398.400,241.974 398.400 C 249.086 398.400,250.267 398.135,250.924 396.396 L 251.375 395.200 255.658 395.200 L 259.940 395.200 261.470 393.613 C 262.996 392.031,263.010 392.026,266.319 391.956 C 269.478 391.890,271.689 390.623,270.581 389.514 C 270.477 389.411,271.553 389.289,272.970 389.243 C 274.387 389.197,276.099 389.001,276.773 388.808 C 277.448 388.614,278.000 388.561,278.000 388.689 C 278.000 388.817,278.366 388.500,278.813 387.985 C 279.261 387.469,279.536 386.811,279.426 386.523 C 279.277 386.136,279.768 385.990,281.313 385.960 C 284.500 385.899,285.327 385.550,285.747 384.084 C 286.102 382.847,287.932 382.416,291.055 382.834 C 291.515 382.896,291.988 381.822,291.994 380.700 C 292.000 379.619,292.044 379.599,294.600 379.550 C 298.633 379.472,298.235 379.700,298.350 377.400 C 298.394 376.511,298.575 376.400,299.974 376.400 C 302.173 376.400,303.549 375.787,303.997 374.607 C 304.238 373.974,304.691 373.600,305.216 373.600 C 306.579 373.600,307.518 372.884,307.792 371.634 C 308.013 370.630,308.291 370.422,309.725 370.183 C 310.938 369.981,311.809 369.476,312.884 368.352 C 313.700 367.498,314.699 366.800,315.104 366.800 C 316.089 366.800,316.800 366.034,316.800 364.971 C 316.800 364.273,317.101 364.054,318.336 363.857 C 319.398 363.687,320.157 363.239,320.796 362.405 C 321.705 361.220,323.643 360.000,324.618 360.000 C 324.890 360.000,325.222 359.565,325.356 359.033 C 325.527 358.350,326.126 357.865,327.399 357.379 C 328.841 356.828,329.200 356.500,329.200 355.733 C 329.200 355.167,329.486 354.689,329.900 354.566 C 331.592 354.059,332.583 353.317,332.801 352.394 C 332.930 351.847,333.253 351.378,333.518 351.350 C 333.783 351.322,334.237 351.278,334.527 351.250 C 334.818 351.222,335.322 350.635,335.649 349.946 C 336.044 349.112,336.705 348.542,337.622 348.246 C 338.593 347.931,339.039 347.525,339.132 346.868 C 339.218 346.259,339.669 345.795,340.432 345.529 C 341.074 345.305,341.600 344.953,341.600 344.748 C 341.600 344.260,344.260 341.600,344.748 341.600 C 344.953 341.600,345.310 341.060,345.540 340.400 C 345.783 339.704,346.243 339.200,346.635 339.200 C 347.440 339.200,348.369 338.083,348.387 337.094 C 348.395 336.689,348.990 336.106,349.783 335.728 C 350.727 335.278,351.244 334.709,351.414 333.934 C 351.575 333.201,351.918 332.800,352.383 332.800 C 353.271 332.800,353.962 332.003,354.354 330.526 C 354.571 329.707,354.939 329.366,355.701 329.276 C 356.531 329.178,356.869 328.803,357.325 327.476 C 357.641 326.554,358.103 325.845,358.350 325.900 C 358.598 325.955,358.800 325.820,358.800 325.600 C 358.800 325.380,359.021 325.245,359.291 325.300 C 359.560 325.355,359.843 324.995,359.918 324.500 C 359.994 324.005,360.204 323.600,360.384 323.600 C 360.565 323.600,360.826 323.150,360.964 322.600 C 361.102 322.050,361.408 321.600,361.644 321.600 C 362.406 321.600,363.580 319.839,363.845 318.300 C 364.050 317.106,364.280 316.800,364.971 316.800 C 366.034 316.800,366.800 316.089,366.800 315.104 C 366.800 314.699,367.498 313.700,368.352 312.884 C 369.485 311.801,369.980 310.941,370.187 309.700 C 370.403 308.406,370.649 308.000,371.220 308.000 C 372.236 308.000,373.600 306.461,373.600 305.315 C 373.600 304.684,373.928 304.256,374.607 303.997 C 375.787 303.549,376.400 302.173,376.400 299.974 C 376.400 298.575,376.511 298.394,377.400 298.350 C 379.700 298.235,379.472 298.633,379.550 294.600 C 379.599 292.044,379.619 292.000,380.700 291.994 C 381.822 291.988,382.896 291.515,382.834 291.055 C 382.416 287.932,382.847 286.102,384.084 285.747 C 385.550 285.327,385.899 284.500,385.960 281.313 C 385.990 279.768,386.136 279.277,386.523 279.426 C 386.811 279.536,387.469 279.261,387.985 278.813 C 388.500 278.366,388.817 278.000,388.689 278.000 C 388.561 278.000,388.614 277.448,388.808 276.773 C 389.001 276.099,389.197 274.387,389.243 272.970 C 389.289 271.553,389.411 270.477,389.514 270.581 C 390.623 271.689,391.890 269.478,391.956 266.319 C 392.026 263.010,392.031 262.996,393.613 261.470 L 395.200 259.940 395.200 255.658 L 395.200 251.375 396.396 250.924 C 398.135 250.267,398.400 249.086,398.400 241.974 C 398.400 235.867,398.433 235.600,399.200 235.600 C 399.994 235.600,400.000 235.333,400.000 199.800 C 400.000 164.559,399.988 164.000,399.219 164.000 C 398.484 164.000,398.430 163.631,398.290 157.700 C 398.101 149.681,398.113 149.725,395.900 149.041 C 395.299 148.856,395.193 148.259,395.150 144.813 C 395.123 142.606,395.078 140.652,395.050 140.471 C 394.957 139.859,393.697 138.836,393.383 139.119 C 393.212 139.274,393.210 139.161,393.379 138.868 C 393.573 138.532,393.376 138.118,392.843 137.745 C 392.110 137.232,392.000 136.754,392.000 134.077 C 392.000 131.071,391.968 130.972,390.626 129.800 C 389.411 128.739,389.229 128.322,389.058 126.200 C 388.749 122.347,388.261 121.200,386.885 121.096 C 386.200 121.045,385.975 120.700,385.786 119.416 C 385.264 115.861,385.026 115.343,383.771 115.028 C 382.862 114.800,382.800 114.611,382.800 112.054 C 382.800 109.560,381.822 107.353,380.958 107.900 C 379.987 108.514,379.600 107.832,379.594 105.500 C 379.587 102.537,379.407 102.189,377.700 101.818 C 376.529 101.565,376.397 101.390,376.367 100.068 C 376.292 96.795,375.692 95.600,374.124 95.600 C 373.809 95.600,373.600 95.122,373.600 94.400 C 373.600 93.550,373.151 92.739,372.060 91.614 C 371.053 90.576,370.395 89.441,370.160 88.338 C 369.850 86.886,369.618 86.602,368.500 86.313 C 367.289 86.000,366.919 85.334,367.156 83.889 C 367.211 83.558,366.861 83.412,365.100 83.026 C 364.230 82.835,364.000 82.558,364.000 81.701 C 364.000 80.947,363.513 80.172,362.398 79.153 C 361.517 78.348,360.530 77.052,360.205 76.274 C 359.880 75.495,359.251 74.743,358.808 74.602 C 358.364 74.462,357.923 73.954,357.826 73.473 C 357.198 70.353,357.226 70.400,355.992 70.400 C 354.896 70.400,354.800 70.287,354.800 69.000 C 354.800 68.230,354.632 67.600,354.427 67.600 C 354.222 67.600,353.939 67.238,353.799 66.796 C 353.658 66.353,353.016 65.719,352.372 65.385 C 351.727 65.052,351.200 64.464,351.200 64.079 C 351.200 63.034,350.057 61.600,349.224 61.600 C 348.611 61.600,348.122 60.862,347.854 59.533 C 347.824 59.387,347.650 59.117,347.467 58.933 C 347.139 58.605,346.951 58.549,345.843 58.450 C 345.537 58.423,345.163 57.906,345.011 57.302 C 344.628 55.775,344.061 55.200,342.941 55.200 C 342.191 55.200,341.927 54.934,341.737 53.986 C 341.545 53.025,340.181 51.640,339.704 51.921 C 339.362 52.124,338.449 51.444,338.642 51.131 C 338.773 50.920,338.547 50.475,338.140 50.144 C 337.733 49.812,337.653 49.672,337.962 49.832 C 338.334 50.025,338.426 49.966,338.234 49.655 C 338.075 49.398,337.790 49.283,337.600 49.400 C 337.410 49.517,337.163 49.464,337.051 49.282 C 336.939 49.101,335.986 48.907,334.934 48.853 C 332.732 48.739,332.778 48.764,332.693 47.636 C 332.650 47.068,332.138 46.566,331.162 46.135 C 330.260 45.737,329.486 45.017,329.148 44.262 C 328.769 43.413,328.199 42.933,327.300 42.706 C 326.235 42.436,325.999 42.181,325.994 41.289 C 325.987 40.052,325.628 39.418,324.900 39.360 C 324.625 39.338,324.130 39.293,323.800 39.260 C 323.470 39.227,323.200 38.827,323.200 38.371 C 323.200 37.071,320.062 35.342,319.045 36.082 C 318.829 36.240,317.223 34.772,317.263 34.452 C 317.388 33.452,317.054 33.200,315.600 33.200 C 314.015 33.200,313.833 32.985,313.914 31.200 C 313.926 30.943,312.655 29.767,312.510 29.900 C 311.987 30.376,310.016 29.880,309.806 29.220 C 309.464 28.141,307.162 26.800,305.653 26.800 C 304.652 26.800,304.400 26.633,304.400 25.971 C 304.400 24.502,303.567 24.040,300.300 23.697 C 299.183 23.580,298.400 23.298,298.400 23.011 C 298.400 22.027,296.862 21.179,294.561 20.893 C 292.393 20.624,292.153 20.493,291.626 19.295 C 291.044 17.974,289.893 17.429,287.038 17.124 C 286.157 17.030,285.840 16.764,285.728 16.024 C 285.522 14.653,285.460 14.623,282.306 14.400 C 279.667 14.213,279.466 14.133,279.327 13.209 C 279.077 11.555,278.405 11.307,273.761 11.157 C 271.963 11.099,271.044 10.883,270.697 10.437 C 270.257 9.873,270.281 9.863,270.900 10.349 C 271.976 11.193,271.716 10.323,270.566 9.232 C 269.705 8.415,269.039 8.235,266.273 8.076 C 263.631 7.924,262.896 7.739,262.458 7.117 C 262.161 6.693,261.668 6.442,261.363 6.559 C 261.059 6.676,260.852 6.567,260.905 6.318 C 261.092 5.429,259.079 4.894,255.303 4.830 C 251.292 4.763,250.642 4.619,250.904 3.860 C 251.074 3.367,250.045 2.268,249.252 2.095 C 247.758 1.769,245.648 1.651,240.900 1.627 C 235.876 1.601,235.600 1.558,235.600 0.800 C 235.600 0.006,235.333 0.000,200.000 0.000 C 164.667 0.000,164.400 0.006,164.400 0.800 M204.566 71.272 C 206.345 71.972,208.471 73.097,209.291 73.772 C 210.112 74.448,211.690 75.720,212.800 76.600 C 213.910 77.480,215.488 78.752,216.309 79.426 C 217.129 80.101,218.430 81.079,219.200 81.600 C 220.559 82.519,222.313 83.930,225.200 86.425 C 228.511 89.287,229.883 90.333,231.200 91.000 C 231.970 91.390,233.267 92.269,234.083 92.955 C 234.899 93.640,236.401 94.830,237.422 95.600 C 238.442 96.370,239.917 97.595,240.700 98.322 C 241.483 99.048,242.590 99.910,243.162 100.236 C 243.733 100.562,245.100 101.541,246.200 102.412 C 250.310 105.667,251.600 104.429,251.600 97.233 C 251.600 91.634,252.294 88.913,253.947 88.028 C 255.301 87.304,282.408 87.450,283.461 88.188 C 285.529 89.636,285.710 91.422,285.964 112.918 L 286.200 132.837 288.800 135.249 C 290.230 136.576,292.120 138.344,293.000 139.178 C 293.880 140.011,295.185 140.992,295.900 141.357 C 296.615 141.722,297.200 142.191,297.200 142.400 C 297.200 142.609,297.724 143.051,298.365 143.382 C 299.779 144.113,305.669 148.519,306.384 149.381 C 306.667 149.721,307.081 150.000,307.304 150.000 C 307.528 150.000,308.493 150.675,309.450 151.500 C 312.771 154.364,314.209 155.490,315.866 156.526 C 316.783 157.099,317.658 157.769,317.810 158.016 C 317.963 158.263,318.653 158.808,319.344 159.227 C 320.659 160.024,322.766 161.758,324.925 163.816 C 325.626 164.485,327.010 165.614,328.000 166.324 C 335.773 171.903,338.194 175.827,337.404 181.569 C 337.141 183.486,333.935 189.285,332.707 190.067 C 327.795 193.194,320.056 192.674,315.829 188.933 C 312.316 185.824,311.728 185.369,308.190 183.008 C 304.189 180.339,301.896 178.549,299.597 176.300 C 298.753 175.475,297.810 174.800,297.501 174.800 C 297.192 174.800,296.503 174.333,295.970 173.762 C 295.436 173.191,294.235 172.274,293.300 171.724 C 292.365 171.174,291.600 170.579,291.600 170.401 C 291.600 170.223,290.126 169.025,288.324 167.739 C 286.522 166.453,284.587 164.927,284.024 164.348 C 282.746 163.034,278.965 159.979,277.387 158.984 C 276.734 158.572,275.620 157.777,274.910 157.218 C 274.201 156.658,272.851 155.606,271.910 154.881 C 270.970 154.156,269.192 152.761,267.960 151.781 C 266.727 150.801,265.550 150.000,265.343 150.000 C 265.136 150.000,264.309 149.380,263.505 148.622 C 262.702 147.864,261.516 146.970,260.871 146.636 C 260.225 146.303,259.594 145.761,259.468 145.432 C 259.341 145.103,258.555 144.371,257.719 143.805 C 253.126 140.696,249.982 138.231,247.379 135.700 C 246.417 134.765,245.483 134.000,245.304 134.000 C 245.125 134.000,244.413 133.505,243.722 132.900 C 241.249 130.735,239.372 129.322,237.588 128.283 C 236.591 127.702,235.252 126.681,234.613 126.013 C 233.973 125.346,233.269 124.800,233.047 124.800 C 232.825 124.800,232.184 124.361,231.622 123.825 C 231.060 123.288,230.027 122.433,229.327 121.925 C 227.347 120.487,223.484 117.476,222.625 116.700 C 222.198 116.315,221.709 116.000,221.538 116.000 C 221.367 116.000,220.276 115.185,219.113 114.190 C 214.817 110.509,214.147 109.962,211.658 108.101 C 210.260 107.055,208.370 105.552,207.458 104.760 C 203.310 101.158,196.992 101.207,192.861 104.874 C 192.039 105.603,190.329 106.920,189.061 107.800 C 186.886 109.309,184.393 111.290,181.200 114.046 C 180.430 114.710,178.330 116.291,176.534 117.558 C 173.016 120.040,171.025 121.584,169.179 123.264 C 168.536 123.850,167.379 124.719,166.607 125.195 C 165.836 125.672,165.069 126.283,164.902 126.553 C 164.736 126.823,163.904 127.467,163.053 127.983 C 162.203 128.500,160.741 129.570,159.806 130.362 C 156.962 132.766,156.276 133.309,154.849 134.277 C 154.095 134.789,153.100 135.572,152.639 136.017 C 151.518 137.098,147.666 140.084,146.187 141.016 C 144.993 141.769,143.555 142.909,140.600 145.446 C 137.432 148.166,135.007 150.000,134.577 150.000 C 134.336 150.000,133.703 150.472,133.170 151.048 C 132.636 151.624,131.480 152.554,130.600 153.115 C 129.720 153.675,128.522 154.599,127.938 155.167 C 126.564 156.503,122.453 159.643,118.600 162.298 C 117.720 162.904,116.678 163.798,116.284 164.283 C 115.890 164.769,114.855 165.567,113.984 166.057 C 113.113 166.547,112.400 167.096,112.400 167.277 C 112.400 167.459,111.500 168.161,110.400 168.838 C 109.300 169.515,108.400 170.208,108.400 170.378 C 108.400 170.656,106.940 171.751,102.800 174.577 C 102.030 175.102,100.770 176.092,100.000 176.775 C 97.728 178.792,95.496 180.588,94.000 181.601 C 93.230 182.122,92.020 183.010,91.310 183.575 C 90.601 184.139,89.196 185.230,88.188 186.000 C 87.181 186.770,85.590 188.066,84.654 188.881 C 81.065 192.004,75.883 193.077,71.492 191.608 C 68.942 190.755,66.800 189.608,66.800 189.096 C 66.800 188.914,66.000 187.596,65.022 186.169 C 62.270 182.148,61.921 176.734,64.223 173.754 C 64.870 172.916,65.769 171.631,66.221 170.898 C 66.672 170.165,67.498 169.258,68.056 168.883 C 68.614 168.507,70.225 167.425,71.635 166.479 C 73.046 165.532,74.650 164.316,75.200 163.777 C 76.925 162.087,79.878 159.600,80.159 159.600 C 80.402 159.600,83.498 157.332,87.165 154.467 C 87.916 153.880,89.030 153.095,89.640 152.721 C 90.250 152.348,90.940 151.685,91.174 151.248 C 91.408 150.812,92.004 150.328,92.500 150.174 C 92.995 150.020,94.066 149.333,94.879 148.647 C 95.693 147.961,97.568 146.500,99.046 145.400 C 100.524 144.300,102.271 142.905,102.926 142.300 C 103.582 141.695,104.276 141.200,104.468 141.200 C 104.661 141.200,105.579 140.519,106.509 139.686 C 108.420 137.974,110.477 136.358,112.980 134.600 C 116.293 132.274,119.200 129.971,119.200 129.674 C 119.200 129.508,119.785 129.037,120.500 128.628 C 121.215 128.218,122.280 127.415,122.866 126.842 C 123.452 126.269,125.222 124.900,126.800 123.800 C 128.377 122.700,130.958 120.717,132.534 119.392 C 134.110 118.068,136.120 116.499,137.000 115.904 C 137.880 115.310,139.590 114.007,140.800 113.009 C 142.010 112.011,143.796 110.610,144.769 109.897 C 145.743 109.184,147.608 107.700,148.914 106.600 C 150.220 105.500,152.048 104.060,152.977 103.400 C 153.905 102.740,155.280 101.713,156.033 101.117 C 156.785 100.521,158.264 99.351,159.320 98.517 C 160.375 97.683,161.905 96.397,162.720 95.660 C 163.534 94.923,164.686 94.068,165.280 93.760 C 165.874 93.452,166.504 92.965,166.680 92.678 C 166.856 92.391,167.696 91.733,168.547 91.217 C 170.076 90.287,172.484 88.402,175.200 86.005 C 177.505 83.971,179.327 82.547,180.641 81.751 C 181.323 81.338,182.583 80.408,183.441 79.685 C 184.298 78.962,185.951 77.567,187.113 76.585 C 188.276 75.603,189.476 74.800,189.780 74.800 C 190.084 74.800,190.689 74.312,191.124 73.715 C 193.341 70.671,199.974 69.466,204.566 71.272 M203.000 120.800 C 203.831 121.460,204.724 122.000,204.985 122.000 C 205.247 122.000,205.897 122.472,206.430 123.048 C 206.964 123.624,208.120 124.553,209.000 125.113 C 210.588 126.123,211.893 127.126,215.617 130.200 C 218.673 132.723,219.801 133.606,220.890 134.328 C 222.579 135.446,226.125 138.283,227.400 139.536 C 228.060 140.184,229.050 140.943,229.600 141.222 C 230.150 141.500,231.050 142.163,231.600 142.695 C 233.024 144.070,235.932 146.310,239.006 148.400 C 241.406 150.032,243.634 151.754,247.000 154.580 C 250.764 157.739,251.544 158.340,253.000 159.200 C 254.590 160.139,256.283 161.480,259.461 164.317 C 260.374 165.133,262.055 166.520,263.198 167.400 C 264.340 168.280,266.081 169.678,267.068 170.506 C 268.055 171.334,269.343 172.260,269.932 172.565 C 270.520 172.869,271.344 173.497,271.763 173.959 C 272.182 174.422,272.773 174.800,273.078 174.800 C 273.382 174.800,274.324 175.475,275.171 176.300 C 276.018 177.125,277.468 178.340,278.394 179.000 C 279.320 179.660,280.645 180.606,281.339 181.102 C 282.032 181.598,283.050 182.422,283.600 182.932 C 284.150 183.443,285.275 184.267,286.100 184.763 C 286.925 185.259,287.600 185.828,287.600 186.028 C 287.600 186.227,288.365 186.868,289.300 187.453 C 290.235 188.038,291.144 188.761,291.320 189.059 C 291.496 189.357,292.576 190.230,293.720 190.998 C 297.313 193.411,298.965 194.791,300.089 196.320 C 300.687 197.134,301.472 198.203,301.832 198.697 C 303.047 200.358,303.172 205.541,303.158 253.547 C 303.143 306.680,303.391 302.309,300.286 304.129 L 298.520 305.163 264.179 305.117 L 229.838 305.071 228.019 303.687 C 227.019 302.926,226.068 302.100,225.906 301.852 C 225.744 301.603,225.596 286.010,225.576 267.200 C 225.537 229.793,225.541 229.887,223.869 228.642 C 222.418 227.563,177.798 227.533,176.138 228.610 C 174.731 229.522,174.669 231.080,174.720 264.200 C 174.747 281.580,174.668 297.187,174.545 298.882 L 174.320 301.964 172.219 303.551 L 170.118 305.137 135.813 305.115 L 101.509 305.093 99.793 304.134 C 98.849 303.606,97.835 302.883,97.538 302.526 C 97.093 301.989,97.005 293.155,97.032 251.438 C 97.065 198.767,97.065 198.740,98.738 197.501 C 99.110 197.226,99.730 196.504,100.117 195.899 C 100.504 195.293,101.491 194.340,102.310 193.781 C 106.903 190.649,107.927 189.909,109.200 188.797 C 111.742 186.577,114.185 184.572,115.200 183.874 C 115.750 183.496,117.370 182.292,118.800 181.198 C 120.230 180.105,122.060 178.765,122.866 178.221 C 123.672 177.678,124.572 176.894,124.866 176.480 C 125.160 176.066,125.850 175.492,126.400 175.206 C 126.950 174.919,128.058 174.126,128.861 173.442 C 130.573 171.987,134.093 169.350,137.200 167.195 C 138.410 166.355,140.030 165.117,140.800 164.442 C 143.494 162.082,145.418 160.564,147.600 159.077 C 151.777 156.231,153.200 155.146,153.200 154.806 C 153.200 154.619,153.875 154.050,154.700 153.541 C 155.525 153.033,156.791 152.029,157.513 151.309 C 158.236 150.589,159.059 150.000,159.344 150.000 C 159.628 150.000,160.294 149.539,160.823 148.975 C 161.353 148.411,162.419 147.566,163.193 147.096 C 163.967 146.627,165.770 145.232,167.200 143.997 C 168.630 142.762,170.340 141.424,171.000 141.025 C 171.660 140.625,172.560 139.961,173.000 139.549 C 173.988 138.622,177.781 135.612,178.983 134.800 C 180.345 133.880,182.785 131.953,184.580 130.381 C 185.471 129.600,186.740 128.624,187.400 128.212 C 188.627 127.446,190.559 125.953,193.145 123.774 C 195.135 122.098,198.350 120.252,199.800 119.953 C 200.460 119.817,201.110 119.682,201.245 119.653 C 201.380 119.624,202.169 120.140,203.000 120.800 " stroke="none" fill="#50af00" fill-rule="evenodd"></path><path id="path1" d="M128.946 8.868 C 128.476 9.095,127.886 9.758,127.635 10.341 L 127.178 11.400 127.889 10.512 C 128.280 10.023,128.960 9.354,129.400 9.025 C 130.324 8.333,130.164 8.278,128.946 8.868 M271.600 9.600 C 272.040 10.040,272.400 10.610,272.400 10.867 C 272.400 11.123,272.514 11.219,272.654 11.079 C 272.975 10.759,271.717 8.800,271.191 8.800 C 270.976 8.800,271.160 9.160,271.600 9.600 M309.314 28.120 C 309.801 28.626,310.274 28.987,310.364 28.923 C 310.598 28.755,309.142 27.200,308.752 27.200 C 308.574 27.200,308.827 27.614,309.314 28.120 M355.020 69.155 C 355.229 69.350,355.850 69.628,356.400 69.772 L 357.400 70.033 356.400 69.431 C 355.286 68.759,354.409 68.584,355.020 69.155 M10.146 127.668 C 9.676 127.895,9.086 128.558,8.835 129.141 L 8.378 130.200 9.089 129.312 C 9.480 128.823,10.160 128.154,10.600 127.825 C 11.524 127.133,11.364 127.078,10.146 127.668 M392.702 137.066 C 392.979 137.177,393.100 137.437,392.973 137.644 C 392.845 137.851,392.979 137.970,393.270 137.910 C 393.562 137.849,393.751 138.038,393.690 138.330 C 393.630 138.621,393.749 138.755,393.956 138.627 C 394.163 138.500,394.423 138.621,394.534 138.898 C 394.695 139.297,394.743 139.297,394.768 138.900 C 394.809 138.252,393.348 136.791,392.700 136.832 C 392.303 136.857,392.303 136.905,392.702 137.066 M393.526 261.993 C 392.442 263.145,392.284 263.453,392.931 263.159 C 393.584 262.861,395.565 260.332,395.081 260.414 C 395.037 260.421,394.337 261.132,393.526 261.993 M8.800 271.191 C 8.800 271.717,10.759 272.975,11.079 272.654 C 11.219 272.514,11.123 272.400,10.867 272.400 C 10.610 272.400,10.040 272.040,9.600 271.600 C 9.160 271.160,8.800 270.976,8.800 271.191 M27.200 308.752 C 27.200 309.142,28.755 310.598,28.923 310.364 C 28.987 310.274,28.626 309.801,28.120 309.314 C 27.614 308.827,27.200 308.574,27.200 308.752 M68.814 355.020 C 68.822 355.229,69.099 355.850,69.431 356.400 L 70.033 357.400 69.772 356.400 C 69.499 355.357,68.789 354.333,68.814 355.020 M261.829 393.655 C 260.315 395.187,260.303 395.218,261.508 394.527 C 262.196 394.132,262.944 393.402,263.171 392.905 C 263.690 391.765,263.708 391.755,261.829 393.655 M136.832 392.700 C 136.791 393.348,138.252 394.809,138.900 394.768 C 139.297 394.743,139.297 394.695,138.898 394.534 C 138.621 394.423,138.500 394.163,138.627 393.956 C 138.755 393.749,138.621 393.630,138.330 393.690 C 138.038 393.751,137.849 393.562,137.910 393.270 C 137.970 392.979,137.851 392.845,137.644 392.973 C 137.437 393.100,137.177 392.979,137.066 392.702 C 136.905 392.303,136.857 392.303,136.832 392.700 " stroke="none" fill="#00ff00" fill-rule="evenodd"></path></g></svg>