<svg id="svg" version="1.1" width="400" height="400" xmlns="http://www.w3.org/2000/svg" xmlns:xlink="http://www.w3.org/1999/xlink" style="display: block;"><g id="svgg"><path id="path0" d="M142.000 0.800 C 142.000 1.430,141.724 1.606,140.700 1.628 L 139.400 1.656 140.820 2.179 C 143.743 3.257,145.466 3.334,146.370 2.430 C 147.227 1.573,147.506 0.000,146.800 0.000 C 146.580 0.000,146.400 0.338,146.400 0.751 C 146.400 1.989,145.449 2.493,143.934 2.056 L 142.600 1.672 144.100 1.636 C 146.555 1.577,146.266 0.000,143.800 0.000 C 142.267 0.000,142.000 0.119,142.000 0.800 M162.000 0.800 C 162.000 1.549,161.713 1.604,157.500 1.662 C 151.167 1.750,150.982 1.767,149.883 2.356 C 149.237 2.701,148.961 3.130,149.083 3.597 C 149.352 4.626,149.022 4.717,144.595 4.842 C 139.681 4.980,136.800 5.978,136.800 7.542 C 136.800 7.731,135.439 7.987,133.776 8.113 C 130.854 8.334,129.373 8.909,129.828 9.645 C 129.949 9.840,129.846 10.000,129.600 10.000 C 129.354 10.000,129.267 10.184,129.406 10.410 C 129.545 10.635,129.511 10.785,129.330 10.743 C 129.148 10.700,128.370 10.785,127.600 10.931 C 126.830 11.076,124.940 11.244,123.400 11.303 L 120.600 11.411 120.476 12.906 L 120.352 14.400 117.876 14.447 C 116.514 14.473,115.165 14.463,114.877 14.425 C 114.590 14.386,114.386 14.590,114.425 14.877 C 114.682 16.796,114.418 17.200,112.900 17.202 C 110.083 17.206,108.524 17.879,108.259 19.205 C 108.026 20.371,107.962 20.400,105.643 20.400 C 102.424 20.400,102.000 20.615,102.000 22.243 C 102.000 23.449,101.878 23.603,100.900 23.631 C 100.295 23.647,99.456 23.726,99.036 23.805 C 97.461 24.100,95.225 24.158,94.977 23.910 C 94.438 23.371,95.249 22.743,95.845 23.238 C 96.694 23.942,97.065 23.294,96.269 22.497 C 95.742 21.971,95.426 21.913,94.892 22.248 C 93.865 22.891,93.802 24.266,94.776 24.787 C 96.205 25.552,95.837 26.800,94.181 26.800 C 92.975 26.800,92.684 26.985,92.245 28.027 C 91.962 28.702,91.610 29.242,91.465 29.227 C 90.723 29.151,90.655 29.248,91.200 29.600 C 91.713 29.931,91.698 29.989,91.100 29.994 C 90.260 30.001,90.131 28.478,90.945 28.166 C 91.353 28.009,91.229 27.659,90.448 26.769 C 89.782 26.010,89.347 25.765,89.243 26.091 C 89.153 26.371,88.903 26.716,88.686 26.857 C 88.469 26.998,88.676 27.320,89.146 27.571 C 89.663 27.848,90.000 28.417,90.000 29.014 C 90.000 30.220,87.933 30.425,86.731 29.338 C 86.294 28.942,86.000 28.862,86.000 29.138 C 86.000 29.675,84.931 29.769,84.733 29.249 C 84.660 29.055,84.150 29.089,83.600 29.324 L 82.600 29.750 83.800 29.934 C 84.998 30.117,84.998 30.118,84.000 30.419 C 83.114 30.686,83.167 30.725,84.467 30.760 C 85.299 30.783,86.021 30.584,86.135 30.300 C 86.421 29.591,86.437 31.223,86.154 32.278 C 85.985 32.906,85.560 33.190,84.659 33.278 C 83.561 33.384,83.384 33.567,83.275 34.700 C 83.157 35.920,83.055 36.000,81.607 36.000 C 80.759 36.000,79.819 36.094,79.519 36.210 C 79.218 36.325,78.581 36.055,78.103 35.610 C 77.007 34.589,76.522 34.587,76.200 35.600 C 76.060 36.040,75.778 36.400,75.573 36.400 C 75.368 36.400,75.200 36.574,75.200 36.787 C 75.200 37.001,75.500 37.060,75.866 36.919 C 76.313 36.748,76.436 36.817,76.242 37.132 C 76.083 37.389,76.105 37.600,76.291 37.600 C 76.477 37.600,76.657 37.965,76.691 38.411 C 76.742 39.095,76.538 39.207,75.390 39.130 C 73.682 39.015,73.415 39.286,73.532 41.014 C 73.618 42.291,73.536 42.400,72.493 42.400 C 71.059 42.400,70.400 43.055,70.400 44.480 C 70.400 45.487,70.263 45.600,69.043 45.600 C 67.609 45.600,67.200 46.096,67.200 47.833 C 67.200 48.672,67.014 48.800,65.800 48.800 C 65.030 48.800,64.400 48.991,64.400 49.224 C 64.400 49.457,64.220 49.536,64.000 49.400 C 63.780 49.264,63.594 49.388,63.587 49.676 C 63.579 49.999,63.349 49.902,62.987 49.424 C 62.379 48.620,62.400 48.592,62.400 50.200 C 62.400 50.561,60.812 51.998,60.300 52.100 C 59.508 52.258,58.400 53.650,58.400 54.485 C 58.400 54.904,58.220 55.136,58.000 55.000 C 57.780 54.864,57.600 54.905,57.600 55.091 C 57.600 55.277,57.220 55.458,56.755 55.493 C 55.702 55.573,55.573 55.702,55.493 56.755 C 55.458 57.220,55.277 57.600,55.091 57.600 C 54.905 57.600,54.864 57.780,55.000 58.000 C 55.136 58.220,54.904 58.400,54.485 58.400 C 53.650 58.400,52.258 59.508,52.100 60.300 C 51.998 60.812,50.561 62.400,50.200 62.400 C 50.090 62.400,49.696 62.400,49.324 62.400 C 48.734 62.400,48.746 62.475,49.424 62.987 C 49.902 63.349,49.999 63.579,49.676 63.587 C 49.388 63.594,49.264 63.780,49.400 64.000 C 49.536 64.220,49.457 64.400,49.224 64.400 C 48.991 64.400,48.800 65.030,48.800 65.800 C 48.800 67.014,48.672 67.200,47.833 67.200 C 46.096 67.200,45.600 67.609,45.600 69.043 C 45.600 70.263,45.487 70.400,44.480 70.400 C 43.055 70.400,42.400 71.059,42.400 72.493 C 42.400 73.536,42.291 73.618,41.014 73.532 C 39.286 73.415,39.015 73.682,39.130 75.390 C 39.207 76.538,39.095 76.742,38.411 76.691 C 37.965 76.657,37.600 76.477,37.600 76.291 C 37.600 76.105,37.389 76.083,37.132 76.242 C 36.817 76.436,36.748 76.313,36.919 75.866 C 37.060 75.500,37.001 75.200,36.787 75.200 C 36.574 75.200,36.400 75.368,36.400 75.573 C 36.400 75.778,36.040 76.060,35.600 76.200 C 34.587 76.522,34.589 77.007,35.610 78.103 C 36.055 78.581,36.325 79.218,36.210 79.519 C 36.094 79.819,36.000 80.759,36.000 81.607 C 36.000 83.055,35.920 83.157,34.700 83.275 C 33.567 83.384,33.384 83.561,33.278 84.659 C 33.190 85.560,32.906 85.985,32.278 86.154 C 31.223 86.437,29.591 86.421,30.300 86.135 C 30.584 86.021,30.783 85.299,30.760 84.467 C 30.725 83.167,30.686 83.114,30.419 84.000 C 30.118 84.998,30.117 84.998,29.934 83.800 L 29.750 82.600 29.324 83.600 C 29.089 84.150,29.055 84.660,29.249 84.733 C 29.769 84.931,29.675 86.000,29.138 86.000 C 28.862 86.000,28.942 86.294,29.338 86.731 C 30.425 87.933,30.220 90.000,29.014 90.000 C 28.417 90.000,27.848 89.663,27.571 89.146 C 27.320 88.676,26.998 88.469,26.857 88.686 C 26.716 88.903,26.371 89.153,26.091 89.243 C 25.765 89.347,26.010 89.782,26.769 90.448 C 27.659 91.229,28.009 91.353,28.166 90.945 C 28.478 90.131,30.001 90.260,29.994 91.100 C 29.989 91.645,29.912 91.680,29.644 91.257 C 29.404 90.879,29.217 90.849,29.026 91.157 C 28.876 91.401,28.898 91.607,29.076 91.616 C 29.254 91.624,28.815 91.886,28.100 92.196 C 26.984 92.682,26.800 92.962,26.800 94.181 C 26.800 95.837,25.552 96.205,24.787 94.776 C 24.266 93.802,22.891 93.865,22.248 94.892 C 21.913 95.426,21.971 95.742,22.497 96.269 C 23.294 97.065,23.942 96.694,23.238 95.845 C 22.743 95.249,23.371 94.438,23.910 94.977 C 24.158 95.225,24.100 97.461,23.805 99.036 C 23.726 99.456,23.647 100.295,23.631 100.900 C 23.603 101.878,23.449 102.000,22.243 102.000 C 20.615 102.000,20.400 102.424,20.400 105.643 C 20.400 107.962,20.371 108.026,19.205 108.259 C 17.879 108.524,17.206 110.083,17.202 112.900 C 17.200 114.418,16.796 114.682,14.877 114.425 C 14.590 114.386,14.386 114.590,14.425 114.877 C 14.463 115.165,14.473 116.514,14.447 117.876 L 14.400 120.352 12.906 120.476 L 11.411 120.600 11.303 123.400 C 11.244 124.940,11.076 126.830,10.931 127.600 C 10.785 128.370,10.700 129.148,10.743 129.330 C 10.785 129.511,10.635 129.545,10.410 129.406 C 10.184 129.267,10.000 129.354,10.000 129.600 C 10.000 129.846,9.840 129.949,9.645 129.828 C 8.909 129.373,8.334 130.854,8.113 133.776 C 7.987 135.439,7.731 136.800,7.542 136.800 C 5.978 136.800,4.980 139.681,4.842 144.595 C 4.717 149.022,4.626 149.352,3.597 149.083 C 3.130 148.961,2.701 149.237,2.356 149.883 C 1.767 150.982,1.750 151.167,1.662 157.500 C 1.604 161.713,1.549 162.000,0.800 162.000 C 0.006 162.000,0.000 162.267,0.000 200.400 C 0.000 238.533,0.006 238.800,0.800 238.800 C 1.546 238.800,1.603 239.083,1.650 243.000 C 1.729 249.629,1.934 250.885,2.964 251.036 C 4.714 251.293,4.800 251.474,4.800 254.903 C 4.800 257.367,4.995 258.613,5.550 259.701 C 6.581 261.724,6.798 262.724,6.258 262.969 C 6.002 263.085,6.065 263.161,6.400 263.141 C 7.888 263.052,8.239 263.187,7.600 263.600 C 7.200 263.858,7.167 263.990,7.500 263.994 C 7.823 263.998,8.014 264.672,8.040 265.900 C 8.103 268.915,8.474 269.771,9.818 270.002 L 11.000 270.205 11.241 274.403 C 11.443 277.928,11.375 278.760,10.815 279.600 C 9.525 281.535,9.409 281.846,10.254 281.108 C 11.004 280.452,11.084 280.452,11.793 281.108 C 12.521 281.780,12.523 281.770,11.886 280.737 C 11.119 279.494,11.699 279.009,13.432 279.444 C 14.335 279.671,14.400 279.865,14.400 282.363 C 14.400 285.238,14.794 286.000,16.280 286.000 C 17.110 286.000,17.201 286.186,17.205 287.900 C 17.214 291.014,17.484 291.540,19.141 291.678 L 20.600 291.800 20.545 295.048 C 20.507 297.248,20.636 298.293,20.945 298.285 C 23.206 298.230,23.600 298.410,23.602 299.500 C 23.608 302.324,24.849 304.817,26.088 304.493 C 26.672 304.340,26.800 304.562,26.800 305.730 C 26.800 306.512,26.980 307.264,27.200 307.400 C 28.034 307.915,27.656 309.936,26.700 310.072 C 25.447 310.250,25.571 311.302,26.865 311.475 C 27.766 311.596,27.897 311.493,27.718 310.809 C 27.539 310.125,27.699 310.000,28.753 310.000 C 29.872 310.000,30.000 310.123,30.000 311.200 C 30.000 312.576,31.221 314.000,32.400 314.000 C 33.043 314.000,33.200 314.267,33.200 315.357 C 33.200 316.731,33.705 317.200,35.181 317.200 C 35.759 317.200,35.949 317.661,36.167 319.590 C 36.454 322.129,37.140 323.200,38.480 323.200 C 39.218 323.200,39.275 323.367,39.042 324.829 C 38.850 326.029,38.905 326.382,39.252 326.168 C 39.548 325.985,39.617 326.049,39.438 326.338 C 39.281 326.592,38.848 326.805,38.476 326.812 C 37.873 326.823,37.878 326.870,38.529 327.248 C 39.081 327.569,39.428 327.518,39.960 327.036 C 41.271 325.850,42.336 326.216,42.476 327.900 C 42.593 329.314,42.685 329.407,44.077 329.523 C 45.465 329.638,45.562 329.735,45.677 331.123 C 45.786 332.435,45.934 332.615,47.000 332.731 C 49.109 332.961,50.030 336.975,48.306 338.423 C 47.552 339.056,47.497 339.247,47.977 339.563 C 48.580 339.959,49.562 339.082,49.587 338.125 C 49.607 337.376,51.328 337.694,52.099 338.589 C 52.483 339.035,52.725 339.715,52.636 340.100 C 52.548 340.484,52.652 340.908,52.868 341.042 C 53.090 341.179,52.857 341.727,52.330 342.306 L 51.400 343.327 52.671 342.409 C 54.405 341.158,55.795 341.676,54.794 343.200 C 54.472 343.691,54.337 343.703,54.056 343.266 C 53.778 342.836,53.664 342.856,53.468 343.366 C 53.335 343.715,52.814 344.011,52.313 344.025 L 51.400 344.051 52.300 344.412 C 52.795 344.611,53.200 344.926,53.200 345.111 C 53.200 345.296,53.461 345.796,53.780 346.224 C 54.342 346.975,54.353 346.972,54.137 346.114 C 53.894 345.150,54.963 343.694,55.398 344.397 C 55.535 344.619,56.132 344.803,56.724 344.806 C 58.324 344.815,58.930 345.342,58.617 346.450 C 58.469 346.973,58.494 347.195,58.674 346.944 C 58.913 346.609,59.130 346.628,59.488 347.015 C 59.873 347.429,59.873 347.589,59.488 347.767 C 59.220 347.891,59.418 347.888,59.929 347.760 C 60.914 347.514,61.969 348.459,61.981 349.600 C 61.987 350.133,61.945 350.133,61.600 349.600 C 61.271 349.091,61.211 349.110,61.206 349.724 C 61.203 350.122,61.041 350.349,60.846 350.228 C 60.221 349.842,60.077 351.966,60.694 352.478 C 61.164 352.868,61.408 352.785,61.968 352.043 C 63.098 350.544,66.960 351.166,67.465 352.929 C 67.731 353.857,68.154 354.271,69.112 354.546 C 69.932 354.781,70.418 355.185,70.450 355.658 C 70.535 356.920,70.589 357.123,70.933 357.467 C 71.284 357.818,71.487 357.869,72.833 357.950 C 73.315 357.979,73.591 358.211,73.488 358.500 C 73.071 359.670,74.300 361.076,75.576 360.889 C 76.612 360.737,76.800 360.839,76.800 361.555 C 76.800 362.020,76.625 362.400,76.411 362.400 C 75.507 362.400,75.304 364.971,76.149 365.717 C 77.282 366.717,78.576 366.454,78.696 365.200 C 78.791 364.215,78.786 364.213,78.409 365.100 C 78.198 365.595,77.719 366.000,77.343 366.000 C 76.768 366.000,76.809 365.842,77.600 365.000 C 79.187 363.311,83.102 363.509,83.275 365.287 C 83.378 366.345,83.626 366.639,84.662 366.934 C 85.858 367.275,86.906 369.200,85.896 369.200 C 85.679 369.200,85.728 369.472,86.004 369.805 C 86.281 370.138,86.708 370.387,86.953 370.358 C 88.948 370.123,90.322 370.458,90.524 371.230 C 90.643 371.686,91.114 372.157,91.570 372.276 C 92.027 372.396,92.400 372.650,92.400 372.842 C 92.400 373.034,93.120 373.306,94.000 373.446 C 95.578 373.699,96.505 376.032,95.199 376.467 C 94.979 376.540,96.329 376.537,98.199 376.459 L 101.600 376.318 101.600 377.388 C 101.600 378.997,102.341 379.444,105.199 379.559 C 108.349 379.687,108.183 379.543,108.367 382.300 C 108.385 382.575,108.535 382.779,108.700 382.753 C 110.925 382.401,114.400 382.880,114.400 383.538 C 114.400 384.810,115.859 385.723,118.206 385.917 C 120.289 386.090,120.400 386.155,120.400 387.201 C 120.400 388.768,121.051 389.116,124.009 389.128 C 127.387 389.142,127.757 389.241,128.016 390.200 C 128.135 390.640,128.630 391.058,129.116 391.128 C 129.602 391.198,130.000 391.423,130.000 391.628 C 130.000 391.833,130.135 391.979,130.300 391.953 C 133.193 391.496,136.800 392.077,136.800 393.000 C 136.800 393.587,136.570 394.000,136.244 394.000 C 134.953 394.000,133.852 395.380,134.636 396.017 C 135.031 396.338,135.230 396.394,135.079 396.142 C 134.928 395.890,135.088 395.575,135.435 395.442 C 136.287 395.115,136.486 395.137,136.241 395.533 C 136.128 395.717,136.289 395.867,136.600 395.867 C 136.911 395.867,137.084 395.736,136.985 395.575 C 136.886 395.415,137.078 395.179,137.411 395.051 C 137.911 394.859,137.931 394.679,137.524 394.027 C 136.937 393.088,137.398 392.422,138.107 393.185 C 138.503 393.613,138.489 393.654,138.038 393.397 C 137.662 393.182,137.571 393.229,137.762 393.538 C 137.919 393.792,138.285 394.000,138.575 394.000 C 138.865 394.000,139.326 394.270,139.600 394.600 C 139.989 395.068,141.086 395.200,144.599 395.200 L 149.100 395.200 149.341 396.407 C 149.683 398.113,150.789 398.400,157.026 398.400 C 162.133 398.400,162.400 398.440,162.400 399.200 C 162.400 399.994,162.667 400.000,200.200 400.000 L 238.000 400.000 238.040 399.100 C 238.078 398.237,238.093 398.241,238.400 399.200 C 238.707 400.159,238.722 400.163,238.760 399.300 C 238.798 398.445,242.995 398.051,249.500 398.293 C 249.775 398.303,250.000 398.151,250.000 397.956 C 250.000 397.760,250.201 397.645,250.447 397.700 C 250.693 397.755,250.949 397.471,251.016 397.069 C 251.320 395.253,251.439 395.200,255.252 395.200 C 258.498 395.200,259.140 395.077,260.718 394.152 C 261.702 393.575,262.371 393.324,262.204 393.593 C 262.038 393.863,262.372 393.775,262.947 393.398 C 263.523 393.021,263.894 392.552,263.773 392.356 C 263.652 392.160,264.799 392.000,266.322 392.000 C 269.061 392.000,270.314 391.486,271.800 389.752 C 272.327 389.137,278.116 388.688,277.743 389.292 C 277.586 389.546,277.663 389.608,277.930 389.443 C 278.179 389.289,278.784 389.377,279.273 389.639 C 279.937 389.995,280.200 389.999,280.315 389.655 C 280.399 389.402,280.603 389.278,280.767 389.380 C 280.932 389.482,281.067 389.295,281.067 388.965 C 281.067 388.630,280.832 388.456,280.533 388.570 C 280.240 388.683,279.985 388.646,279.967 388.487 C 279.949 388.329,279.853 387.705,279.753 387.100 C 279.577 386.029,279.623 386.000,281.486 385.994 C 283.868 385.987,285.295 385.293,285.599 383.997 C 285.814 383.078,286.051 382.984,288.616 382.800 L 291.400 382.600 291.522 381.130 L 291.645 379.660 294.862 379.530 C 296.631 379.458,298.162 379.535,298.263 379.700 C 298.364 379.865,299.202 379.973,300.124 379.940 L 301.800 379.880 300.000 379.640 C 299.010 379.508,298.245 379.265,298.300 379.100 C 298.355 378.935,298.400 378.260,298.400 377.600 L 298.400 376.400 300.869 376.400 C 302.604 376.400,303.554 376.597,304.069 377.062 C 304.749 377.678,304.800 377.678,304.800 377.062 C 304.800 376.698,305.070 376.400,305.400 376.400 C 305.730 376.400,306.000 376.220,306.000 376.000 C 306.000 375.780,305.730 375.600,305.400 375.600 C 304.506 375.600,304.604 373.609,305.500 373.569 C 306.915 373.508,307.789 373.233,307.932 372.805 C 308.035 372.494,308.241 372.502,308.639 372.832 C 309.016 373.145,309.200 373.157,309.200 372.869 C 309.200 372.633,308.894 372.268,308.519 372.059 C 307.945 371.737,307.921 371.577,308.368 371.039 C 309.035 370.235,309.600 370.218,309.600 371.000 C 309.600 371.330,309.774 371.600,309.987 371.600 C 310.201 371.600,310.271 371.330,310.145 371.000 C 309.963 370.526,310.263 370.400,311.574 370.400 C 313.594 370.400,314.294 369.821,314.075 368.330 C 313.930 367.343,314.038 367.200,314.926 367.200 C 316.210 367.200,317.200 366.230,317.200 364.971 C 317.200 364.049,317.327 363.999,319.700 363.972 C 321.810 363.948,324.863 363.313,323.276 363.228 C 322.959 363.211,322.876 363.003,323.066 362.700 C 323.238 362.425,323.384 361.930,323.389 361.600 C 323.396 361.222,323.918 360.926,324.800 360.800 C 326.037 360.623,326.215 360.449,326.325 359.300 C 326.413 358.388,326.655 358.000,327.136 358.000 C 328.291 358.000,329.600 356.819,329.600 355.777 C 329.600 355.107,329.824 354.800,330.311 354.800 C 331.468 354.800,332.800 353.628,332.800 352.609 C 332.800 351.880,333.080 351.602,334.019 351.396 C 334.690 351.249,335.453 350.784,335.715 350.364 C 335.978 349.944,336.410 349.600,336.676 349.600 C 336.942 349.600,337.304 349.375,337.480 349.100 C 337.931 348.396,340.247 347.162,340.876 347.292 C 341.164 347.351,341.343 347.140,341.274 346.822 C 341.053 345.808,342.097 344.332,342.888 344.539 C 343.823 344.784,344.784 343.823,344.539 342.888 C 344.332 342.097,345.808 341.053,346.822 341.274 C 347.140 341.343,347.351 341.164,347.292 340.876 C 347.152 340.196,348.375 338.018,349.400 337.125 C 349.840 336.741,350.025 336.421,349.811 336.413 C 349.597 336.406,349.808 336.130,350.279 335.800 C 350.751 335.469,351.255 334.659,351.400 334.000 C 351.602 333.079,351.884 332.800,352.609 332.800 C 353.628 332.800,354.800 331.468,354.800 330.311 C 354.800 329.824,355.107 329.600,355.777 329.600 C 356.819 329.600,358.000 328.291,358.000 327.136 C 358.000 326.655,358.388 326.413,359.300 326.325 C 360.449 326.215,360.623 326.037,360.800 324.800 C 360.926 323.918,361.222 323.396,361.600 323.389 C 361.930 323.384,362.425 323.238,362.700 323.066 C 363.003 322.876,363.211 322.959,363.228 323.276 C 363.313 324.863,363.948 321.810,363.972 319.700 C 363.999 317.327,364.049 317.200,364.971 317.200 C 366.230 317.200,367.200 316.210,367.200 314.926 C 367.200 314.038,367.343 313.930,368.330 314.075 C 369.821 314.294,370.400 313.594,370.400 311.574 C 370.400 310.263,370.526 309.963,371.000 310.145 C 371.330 310.271,371.600 310.201,371.600 309.987 C 371.600 309.774,371.330 309.600,371.000 309.600 C 370.218 309.600,370.235 309.035,371.039 308.368 C 371.577 307.921,371.737 307.945,372.059 308.519 C 372.268 308.894,372.633 309.200,372.869 309.200 C 373.157 309.200,373.145 309.016,372.832 308.639 C 372.502 308.241,372.494 308.035,372.805 307.932 C 373.233 307.789,373.508 306.915,373.569 305.500 C 373.609 304.604,375.600 304.506,375.600 305.400 C 375.600 305.730,375.780 306.000,376.000 306.000 C 376.220 306.000,376.400 305.730,376.400 305.400 C 376.400 305.070,376.698 304.800,377.062 304.800 C 377.678 304.800,377.678 304.749,377.062 304.069 C 376.597 303.554,376.400 302.604,376.400 300.869 L 376.400 298.400 377.600 298.400 C 378.260 298.400,378.935 298.355,379.100 298.300 C 379.265 298.245,379.508 299.010,379.640 300.000 L 379.880 301.800 379.940 300.124 C 379.973 299.202,379.865 298.364,379.700 298.263 C 379.535 298.162,379.458 296.631,379.530 294.862 L 379.660 291.645 381.130 291.522 L 382.600 291.400 382.717 288.765 C 382.829 286.233,382.883 286.108,384.106 285.565 C 385.491 284.950,385.897 284.013,385.960 281.286 C 385.998 279.647,386.048 279.580,387.100 279.753 C 387.705 279.853,388.329 279.949,388.487 279.967 C 388.646 279.985,388.683 280.240,388.570 280.533 C 388.456 280.832,388.630 281.067,388.965 281.067 C 389.295 281.067,389.482 280.932,389.380 280.767 C 389.278 280.603,389.402 280.399,389.655 280.315 C 389.999 280.200,389.995 279.937,389.639 279.273 C 389.377 278.784,389.289 278.179,389.443 277.930 C 389.608 277.663,389.546 277.586,389.292 277.743 C 388.688 278.116,389.137 272.327,389.752 271.800 C 391.486 270.314,392.000 269.061,392.000 266.322 C 392.000 264.799,392.160 263.652,392.356 263.773 C 392.552 263.894,393.021 263.523,393.398 262.947 C 393.775 262.372,393.863 262.038,393.593 262.204 C 393.324 262.371,393.575 261.702,394.152 260.718 C 395.077 259.140,395.200 258.498,395.200 255.252 C 395.200 251.439,395.253 251.320,397.069 251.016 C 397.471 250.949,397.755 250.693,397.700 250.447 C 397.645 250.201,397.760 250.000,397.956 250.000 C 398.151 250.000,398.303 249.775,398.293 249.500 C 398.051 242.995,398.445 238.798,399.300 238.760 C 400.163 238.722,400.159 238.707,399.200 238.400 C 398.241 238.093,398.237 238.078,399.100 238.040 L 400.000 238.000 400.000 200.200 C 400.000 162.667,399.994 162.400,399.200 162.400 C 398.440 162.400,398.400 162.133,398.400 157.026 C 398.400 150.789,398.113 149.683,396.407 149.341 L 395.200 149.100 395.200 144.599 C 395.200 141.086,395.068 139.989,394.600 139.600 C 394.270 139.326,394.000 138.865,394.000 138.575 C 394.000 138.285,393.792 137.919,393.538 137.762 C 393.229 137.571,393.182 137.662,393.397 138.038 C 393.654 138.489,393.613 138.503,393.185 138.107 C 392.422 137.398,393.088 136.937,394.027 137.524 C 394.679 137.931,394.859 137.911,395.051 137.411 C 395.179 137.078,395.415 136.886,395.575 136.985 C 395.736 137.084,395.867 136.911,395.867 136.600 C 395.867 136.289,395.686 136.147,395.465 136.283 C 395.222 136.433,395.170 136.256,395.332 135.833 C 395.479 135.449,395.600 135.049,395.600 134.944 C 395.600 134.839,395.825 134.888,396.100 135.053 C 396.404 135.236,396.371 135.072,396.017 134.636 C 395.380 133.852,394.000 134.953,394.000 136.244 C 394.000 136.570,393.587 136.800,393.000 136.800 C 392.077 136.800,391.496 133.193,391.953 130.300 C 391.979 130.135,391.833 130.000,391.628 130.000 C 391.423 130.000,391.198 129.602,391.128 129.116 C 391.058 128.630,390.640 128.135,390.200 128.016 C 389.241 127.757,389.142 127.387,389.128 124.009 C 389.116 121.051,388.768 120.400,387.201 120.400 C 386.155 120.400,386.090 120.289,385.917 118.206 C 385.723 115.859,384.810 114.400,383.538 114.400 C 382.880 114.400,382.401 110.925,382.753 108.700 C 382.779 108.535,382.575 108.385,382.300 108.367 C 379.543 108.183,379.687 108.349,379.559 105.199 C 379.444 102.341,378.997 101.600,377.388 101.600 L 376.318 101.600 376.459 98.199 C 376.537 96.329,376.540 94.979,376.467 95.199 C 376.032 96.505,373.699 95.578,373.446 94.000 C 373.306 93.120,373.034 92.400,372.842 92.400 C 372.650 92.400,372.396 92.027,372.276 91.570 C 372.157 91.114,371.686 90.643,371.230 90.524 C 370.458 90.322,370.123 88.948,370.358 86.953 C 370.387 86.708,370.138 86.281,369.805 86.004 C 369.472 85.728,369.200 85.679,369.200 85.896 C 369.200 87.030,367.205 85.833,366.965 84.555 C 366.736 83.332,366.579 83.200,365.355 83.200 L 364.000 83.200 364.000 80.870 C 364.000 78.901,364.155 78.394,365.000 77.600 C 365.842 76.809,366.000 76.768,366.000 77.343 C 366.000 77.719,365.595 78.198,365.100 78.409 C 364.213 78.786,364.215 78.791,365.200 78.696 C 366.454 78.576,366.717 77.282,365.717 76.149 C 364.971 75.304,362.400 75.507,362.400 76.411 C 362.400 76.625,362.020 76.800,361.555 76.800 C 360.839 76.800,360.737 76.612,360.889 75.576 C 361.076 74.300,359.670 73.071,358.500 73.488 C 358.211 73.591,357.979 73.315,357.950 72.833 C 357.869 71.487,357.818 71.284,357.467 70.933 C 357.123 70.589,356.920 70.535,355.658 70.450 C 355.185 70.418,354.781 69.932,354.546 69.112 C 354.271 68.154,353.857 67.731,352.929 67.465 C 351.166 66.960,350.544 63.098,352.043 61.968 C 352.785 61.408,352.868 61.164,352.478 60.694 C 351.966 60.077,349.842 60.221,350.228 60.846 C 350.349 61.041,350.122 61.203,349.724 61.206 C 349.110 61.211,349.091 61.271,349.600 61.600 C 350.133 61.945,350.133 61.987,349.600 61.981 C 348.459 61.969,347.514 60.914,347.760 59.929 C 347.888 59.418,347.891 59.220,347.767 59.488 C 347.589 59.873,347.429 59.873,347.015 59.488 C 346.628 59.130,346.609 58.913,346.944 58.674 C 347.195 58.494,346.973 58.469,346.450 58.617 C 345.342 58.930,344.815 58.324,344.806 56.724 C 344.803 56.132,344.619 55.535,344.397 55.398 C 343.694 54.963,345.150 53.894,346.114 54.137 C 346.972 54.353,346.975 54.342,346.224 53.780 C 345.796 53.461,345.296 53.200,345.111 53.200 C 344.926 53.200,344.611 52.795,344.412 52.300 L 344.051 51.400 344.025 52.313 C 344.011 52.814,343.715 53.335,343.366 53.468 C 342.856 53.664,342.836 53.778,343.266 54.056 C 343.703 54.337,343.691 54.472,343.200 54.794 C 341.676 55.795,341.158 54.405,342.409 52.671 L 343.327 51.400 342.306 52.330 C 341.727 52.857,341.179 53.090,341.042 52.868 C 340.908 52.652,340.484 52.548,340.100 52.636 C 339.715 52.725,339.035 52.483,338.589 52.099 C 337.694 51.328,337.376 49.607,338.125 49.587 C 339.082 49.562,339.959 48.580,339.563 47.977 C 339.247 47.497,339.056 47.552,338.423 48.306 C 336.975 50.030,332.961 49.109,332.731 47.000 C 332.615 45.934,332.435 45.786,331.123 45.677 C 329.735 45.562,329.638 45.465,329.523 44.077 C 329.407 42.685,329.314 42.593,327.900 42.476 C 326.216 42.336,325.850 41.271,327.036 39.960 C 327.518 39.428,327.569 39.081,327.248 38.529 C 326.870 37.878,326.823 37.873,326.812 38.476 C 326.805 38.848,326.592 39.281,326.338 39.438 C 326.049 39.617,325.985 39.548,326.168 39.252 C 326.382 38.905,326.026 38.850,324.811 39.045 C 323.905 39.189,323.208 39.149,323.261 38.954 C 323.736 37.227,322.116 36.200,318.700 36.061 C 317.509 36.013,317.200 35.842,317.200 35.233 C 317.200 33.703,316.744 33.200,315.357 33.200 C 314.267 33.200,314.000 33.043,314.000 32.400 C 314.000 31.221,312.576 30.000,311.200 30.000 C 310.123 30.000,310.000 29.872,310.000 28.753 C 310.000 27.699,310.125 27.539,310.809 27.718 C 311.493 27.897,311.596 27.766,311.475 26.865 C 311.302 25.571,310.250 25.447,310.072 26.700 C 309.936 27.656,307.915 28.034,307.400 27.200 C 307.264 26.980,306.512 26.800,305.730 26.800 C 304.562 26.800,304.340 26.672,304.493 26.088 C 304.817 24.849,302.324 23.608,299.500 23.602 C 298.410 23.600,298.230 23.206,298.285 20.945 C 298.293 20.636,297.248 20.507,295.048 20.545 L 291.800 20.600 291.678 19.141 C 291.540 17.484,291.014 17.214,287.900 17.205 C 286.186 17.201,286.000 17.110,286.000 16.280 C 286.000 14.794,285.238 14.400,282.363 14.400 C 279.865 14.400,279.671 14.335,279.444 13.432 C 279.008 11.696,279.496 11.118,280.737 11.899 C 281.789 12.562,281.793 12.560,281.108 11.762 C 280.452 10.997,280.452 10.917,281.108 10.221 C 281.856 9.428,281.430 9.596,279.600 10.815 C 278.760 11.375,277.928 11.443,274.403 11.241 L 270.205 11.000 270.002 9.818 C 269.771 8.474,268.915 8.103,265.900 8.040 C 264.672 8.014,263.998 7.823,263.994 7.500 C 263.990 7.167,263.858 7.200,263.600 7.600 C 263.187 8.239,263.052 7.888,263.141 6.400 C 263.161 6.065,263.085 6.002,262.969 6.258 C 262.724 6.798,261.724 6.581,259.701 5.550 C 258.613 4.995,257.367 4.800,254.903 4.800 C 251.474 4.800,251.293 4.714,251.036 2.964 C 250.885 1.934,249.629 1.729,243.000 1.650 C 239.083 1.603,238.800 1.546,238.800 0.800 C 238.800 0.006,238.533 0.000,200.400 0.000 C 162.267 0.000,162.000 0.006,162.000 0.800 M253.200 0.938 C 253.200 2.517,254.536 3.407,255.998 2.801 C 257.737 2.081,257.868 1.590,256.199 2.051 C 254.504 2.519,254.000 2.273,254.000 0.976 C 254.000 0.439,253.820 0.000,253.600 0.000 C 253.380 0.000,253.200 0.422,253.200 0.938 M258.000 0.800 C 258.000 1.333,258.267 1.600,258.800 1.600 C 259.333 1.600,259.600 1.333,259.600 0.800 C 259.600 0.267,259.333 0.000,258.800 0.000 C 258.267 0.000,258.000 0.267,258.000 0.800 M125.300 7.322 C 123.626 7.829,123.651 8.245,125.373 8.569 C 126.184 8.721,126.820 9.107,126.927 9.513 C 127.063 10.033,127.118 9.990,127.154 9.333 C 127.179 8.857,127.394 8.402,127.631 8.323 C 128.831 7.923,126.550 6.943,125.300 7.322 M276.962 8.858 C 276.204 9.712,276.205 9.714,277.100 9.244 C 277.595 8.984,278.000 8.598,278.000 8.386 C 278.000 7.818,277.809 7.905,276.962 8.858 M282.273 10.554 C 281.964 11.359,282.517 12.001,283.036 11.441 C 283.353 11.100,283.335 10.842,282.972 10.503 C 282.589 10.145,282.425 10.157,282.273 10.554 M119.406 11.488 L 118.704 12.600 119.630 11.711 C 120.139 11.222,120.455 10.722,120.332 10.599 C 120.209 10.476,119.792 10.876,119.406 11.488 M289.213 13.300 C 289.200 13.995,288.189 14.294,287.933 13.678 C 287.860 13.502,287.350 13.589,286.800 13.873 C 285.804 14.386,285.805 14.388,287.200 14.400 C 288.252 14.409,288.451 14.509,288.000 14.800 C 287.529 15.105,287.626 15.189,288.451 15.194 C 289.922 15.202,290.552 14.353,289.806 13.367 C 289.278 12.669,289.224 12.663,289.213 13.300 M99.415 19.739 C 98.697 20.265,98.845 21.200,99.647 21.200 C 99.867 21.200,99.931 21.012,99.789 20.782 C 99.647 20.553,99.749 20.103,100.015 19.782 C 100.619 19.054,100.377 19.036,99.415 19.739 M309.200 29.200 C 309.435 29.640,309.485 30.000,309.310 30.000 C 309.135 30.000,308.768 29.640,308.493 29.200 C 308.216 28.757,308.167 28.400,308.383 28.400 C 308.597 28.400,308.965 28.760,309.200 29.200 M73.002 38.798 C 72.603 39.239,72.462 39.600,72.689 39.600 C 73.192 39.600,74.190 38.457,73.921 38.188 C 73.815 38.082,73.402 38.356,73.002 38.798 M337.900 46.832 C 337.515 47.056,337.205 47.546,337.212 47.920 C 337.223 48.533,337.266 48.528,337.646 47.874 C 337.878 47.475,338.458 46.992,338.934 46.800 C 339.432 46.599,339.545 46.445,339.200 46.438 C 338.870 46.430,338.285 46.608,337.900 46.832 M352.938 63.017 C 352.578 63.955,352.967 64.066,353.519 63.182 C 353.828 62.687,353.854 62.400,353.591 62.400 C 353.362 62.400,353.068 62.678,352.938 63.017 M38.602 73.198 C 38.203 73.639,38.062 74.000,38.289 74.000 C 38.792 74.000,39.790 72.857,39.521 72.588 C 39.415 72.482,39.002 72.756,38.602 73.198 M136.483 107.312 C 153.998 124.826,168.654 139.706,169.051 140.378 C 169.448 141.050,169.923 141.600,170.107 141.600 C 171.655 141.600,172.250 149.293,170.896 151.817 C 165.899 161.137,166.351 164.014,173.924 171.092 C 176.459 173.461,179.382 176.210,180.420 177.200 C 181.458 178.190,184.427 180.980,187.018 183.400 C 191.428 187.518,194.788 190.692,196.055 191.935 C 196.355 192.229,197.034 192.859,197.565 193.335 C 198.096 193.811,199.180 194.875,199.974 195.700 C 202.525 198.351,204.424 197.988,208.352 194.100 C 210.074 192.395,213.524 189.110,216.019 186.800 C 218.513 184.490,222.274 180.971,224.377 178.980 C 226.480 176.989,228.862 174.862,229.671 174.255 C 234.512 170.617,235.374 167.975,234.929 158.136 C 234.466 147.928,234.824 142.854,236.353 137.925 C 237.014 135.793,237.675 133.363,237.823 132.525 C 238.066 131.146,240.761 124.900,242.191 122.400 C 242.506 121.850,243.303 120.388,243.962 119.150 C 244.621 117.913,245.430 116.797,245.759 116.671 C 246.089 116.545,246.662 115.847,247.034 115.121 C 248.213 112.814,260.005 100.000,260.948 100.000 C 261.281 100.000,262.705 98.878,266.000 96.022 C 267.732 94.520,272.813 91.200,273.381 91.199 C 273.612 91.199,274.859 90.479,276.154 89.599 C 277.449 88.720,278.799 88.003,279.154 88.006 C 279.509 88.009,281.060 87.398,282.600 86.648 C 285.664 85.155,295.734 82.557,300.023 82.153 C 313.558 80.876,326.493 87.790,331.917 99.200 C 333.837 103.239,335.064 110.111,334.684 114.689 C 333.861 124.580,333.536 126.661,332.381 129.472 C 331.731 131.052,331.200 132.569,331.200 132.844 C 331.200 133.591,326.877 142.238,326.238 142.768 C 325.935 143.020,325.456 143.806,325.175 144.513 C 324.603 145.954,320.538 152.267,319.948 152.632 C 319.739 152.761,319.135 153.552,318.607 154.389 C 316.957 157.002,306.356 167.383,304.199 168.498 C 303.539 168.839,302.639 169.516,302.199 170.002 C 301.760 170.488,300.680 171.251,299.800 171.697 C 298.920 172.144,297.699 172.928,297.088 173.439 C 296.476 173.951,295.337 174.546,294.556 174.761 C 293.776 174.977,292.566 175.586,291.869 176.116 C 291.171 176.645,289.880 177.310,289.000 177.592 C 288.120 177.875,286.230 178.635,284.800 179.282 C 279.116 181.853,266.007 183.276,258.941 182.090 C 251.003 180.758,247.694 181.982,242.411 188.209 C 240.986 189.887,239.629 191.382,239.394 191.530 C 239.160 191.679,237.734 193.150,236.227 194.800 C 229.670 201.976,224.882 207.097,223.330 208.592 C 222.342 209.543,221.341 211.046,220.880 212.270 L 220.100 214.340 221.369 215.570 C 222.067 216.246,222.787 216.800,222.969 216.800 C 223.151 216.800,225.094 218.604,227.286 220.808 C 229.479 223.013,231.796 225.088,232.436 225.419 C 233.076 225.750,233.600 226.170,233.600 226.352 C 233.600 226.801,238.016 231.345,238.971 231.880 C 239.685 232.280,244.723 236.978,251.323 243.400 C 252.905 244.939,254.627 246.496,255.149 246.860 C 255.671 247.223,258.179 249.473,260.723 251.860 C 267.405 258.130,273.018 263.332,273.651 263.843 C 273.953 264.086,274.578 264.716,275.041 265.243 C 275.503 265.769,277.382 267.550,279.216 269.200 C 282.581 272.228,283.239 272.857,284.485 274.240 C 284.861 274.658,285.998 275.720,287.010 276.600 C 288.023 277.480,290.252 279.550,291.964 281.200 C 293.676 282.850,296.099 285.010,297.347 286.000 C 298.596 286.990,299.885 288.201,300.213 288.691 C 300.540 289.182,302.216 290.749,303.939 292.173 C 315.813 301.997,316.034 304.730,305.794 315.066 C 295.615 325.340,293.705 325.503,285.600 316.788 C 283.730 314.777,280.894 311.784,279.298 310.136 C 277.702 308.489,275.902 306.486,275.298 305.686 C 274.694 304.886,272.850 302.856,271.200 301.175 C 267.573 297.481,260.812 290.219,258.189 287.200 C 257.138 285.990,255.630 284.368,254.839 283.595 C 253.131 281.927,243.196 271.379,239.586 267.400 C 236.983 264.532,230.017 256.980,226.800 253.539 C 225.810 252.480,224.410 250.935,223.688 250.107 C 222.967 249.278,220.987 247.141,219.288 245.358 C 211.761 237.457,207.563 232.935,206.984 232.103 C 204.793 228.959,203.260 230.038,191.569 242.955 C 190.596 244.030,188.450 246.325,186.800 248.054 C 185.150 249.783,182.450 252.660,180.800 254.446 C 179.150 256.232,177.369 258.078,176.843 258.547 C 176.316 259.016,175.686 259.642,175.443 259.939 C 174.188 261.465,171.657 264.293,170.574 265.378 C 169.900 266.054,168.483 267.595,167.426 268.803 C 166.370 270.012,164.041 272.543,162.252 274.429 C 160.464 276.314,157.020 280.002,154.600 282.624 C 150.354 287.224,146.963 290.842,138.129 300.200 C 132.082 306.606,128.406 310.551,126.678 312.491 C 116.147 324.311,115.206 324.988,109.526 324.839 C 108.096 324.801,97.936 315.279,92.900 309.257 C 89.586 305.294,91.817 301.364,102.800 291.818 C 104.010 290.767,106.449 288.532,108.221 286.853 C 111.794 283.465,119.696 276.170,122.141 274.000 C 123.009 273.230,124.232 272.060,124.858 271.400 C 125.485 270.740,126.133 270.077,126.299 269.927 C 126.464 269.776,127.471 268.876,128.535 267.927 C 129.599 266.977,131.751 264.940,133.318 263.400 C 134.885 261.860,136.895 259.995,137.784 259.255 C 138.673 258.515,141.240 256.175,143.488 254.055 C 147.745 250.042,152.953 245.233,155.940 242.558 C 156.897 241.701,159.215 239.560,161.092 237.800 C 162.968 236.040,165.942 233.250,167.700 231.600 C 169.459 229.950,171.650 227.880,172.569 227.000 C 175.565 224.132,183.764 216.540,185.267 215.242 C 187.586 213.239,187.746 211.208,185.739 209.242 C 184.893 208.412,182.850 206.271,181.200 204.483 C 179.550 202.695,176.850 199.809,175.200 198.068 C 173.550 196.328,170.231 192.766,167.825 190.152 C 159.752 181.382,156.247 178.157,154.241 177.652 C 150.692 176.758,147.225 177.414,143.919 179.605 C 138.493 183.199,133.761 182.101,127.516 175.800 C 125.990 174.260,124.562 172.820,124.344 172.600 C 124.125 172.380,110.936 159.220,95.033 143.356 C 63.145 111.545,64.455 113.063,66.261 110.005 C 67.773 107.445,72.567 108.328,74.676 111.556 C 75.074 112.165,76.480 113.625,77.800 114.800 C 79.120 115.976,81.147 118.020,82.304 119.343 C 83.461 120.666,84.812 122.030,85.307 122.374 C 85.802 122.718,89.265 126.124,93.003 129.943 C 96.741 133.761,100.126 137.181,100.524 137.543 C 100.923 137.904,104.474 141.391,108.415 145.290 C 117.077 153.859,118.071 154.282,120.331 150.352 L 121.262 148.733 120.143 147.067 C 119.196 145.655,117.704 144.031,111.913 138.103 C 111.148 137.320,97.189 123.344,96.229 122.400 C 87.374 113.693,84.302 110.616,82.654 108.800 C 81.556 107.590,80.224 106.307,79.695 105.950 C 79.165 105.592,78.391 104.782,77.975 104.150 C 77.559 103.517,76.959 102.640,76.642 102.200 C 74.581 99.341,81.087 95.512,83.320 98.269 C 83.584 98.595,84.859 99.883,86.152 101.131 C 88.219 103.125,98.664 113.634,100.732 115.800 C 101.152 116.240,103.094 118.171,105.048 120.090 C 107.001 122.010,108.911 123.900,109.292 124.290 C 125.622 141.055,128.448 143.189,130.976 140.660 C 131.539 140.097,131.999 139.223,131.998 138.718 C 131.994 137.236,131.213 134.848,130.623 134.511 C 129.634 133.948,125.200 129.820,125.200 129.463 C 125.200 129.016,121.001 124.803,120.543 124.790 C 120.355 124.785,119.300 123.758,118.200 122.508 C 115.829 119.814,114.953 118.922,111.788 115.984 C 110.474 114.765,108.388 112.695,107.151 111.384 C 105.914 110.073,103.844 107.969,102.551 106.708 C 101.258 105.447,99.251 103.422,98.092 102.208 C 96.933 100.994,95.836 100.000,95.656 100.000 C 95.475 100.000,94.187 98.660,92.793 97.023 C 91.399 95.386,89.776 93.689,89.185 93.252 C 86.725 91.433,87.480 87.322,90.437 86.436 C 92.137 85.927,96.067 87.922,96.587 89.558 C 96.721 89.982,97.285 90.626,97.839 90.989 C 98.394 91.352,101.990 94.833,105.830 98.725 C 109.671 102.616,112.997 105.980,113.221 106.200 C 114.149 107.108,128.446 121.425,128.712 121.712 C 129.723 122.804,132.934 125.600,133.178 125.600 C 133.339 125.600,133.671 126.037,133.914 126.571 C 135.416 129.868,139.837 131.395,141.801 129.295 C 143.679 127.287,142.326 122.665,139.606 121.802 C 139.174 121.665,138.453 121.036,138.003 120.404 C 137.552 119.772,135.540 117.667,133.531 115.727 C 131.521 113.787,129.590 111.878,129.239 111.485 C 128.675 110.854,125.240 107.440,123.000 105.284 C 122.560 104.861,121.180 103.454,119.933 102.157 C 118.686 100.861,117.446 99.601,117.176 99.357 C 116.390 98.645,114.390 96.662,113.667 95.876 C 112.389 94.490,109.287 91.393,108.148 90.366 C 107.516 89.798,105.925 88.142,104.611 86.686 C 103.296 85.230,101.814 83.822,101.317 83.556 C 100.820 83.290,100.300 82.696,100.161 82.236 C 100.022 81.776,99.574 81.034,99.165 80.586 C 97.391 78.642,99.868 75.009,102.776 75.288 L 104.637 75.467 136.483 107.312 M371.684 87.439 C 371.260 87.901,371.277 88.000,371.784 88.000 C 372.123 88.000,372.400 88.338,372.400 88.751 C 372.400 89.464,373.448 90.691,373.772 90.357 C 374.350 89.761,374.093 88.560,373.312 88.214 C 372.824 87.998,372.374 87.609,372.312 87.350 C 372.233 87.016,372.049 87.043,371.684 87.439 M377.714 96.642 C 377.227 97.169,376.989 97.600,377.186 97.600 C 377.656 97.600,378.800 96.445,378.800 95.971 C 378.800 95.488,378.758 95.513,377.714 96.642 M379.207 99.340 C 378.750 100.075,378.754 100.135,379.236 99.754 C 379.546 99.508,380.061 99.226,380.380 99.127 C 380.874 98.974,380.869 98.912,380.351 98.713 C 379.983 98.572,379.531 98.819,379.207 99.340 M19.562 99.676 C 19.118 100.508,19.134 100.547,19.717 100.066 C 20.073 99.772,20.576 99.662,20.834 99.821 C 21.123 100.000,21.236 99.907,21.127 99.581 C 20.822 98.667,20.075 98.713,19.562 99.676 M382.478 104.752 C 382.065 105.007,382.079 105.167,382.545 105.555 C 382.976 105.912,383.202 105.920,383.410 105.585 C 383.793 104.965,383.114 104.358,382.478 104.752 M385.170 110.650 C 384.663 111.272,384.678 111.321,385.300 111.087 C 385.710 110.934,386.000 111.013,386.000 111.279 C 386.000 111.529,386.106 111.627,386.237 111.497 C 386.367 111.367,386.308 110.965,386.107 110.605 C 385.770 110.003,385.693 110.007,385.170 110.650 M11.200 119.600 C 10.650 120.030,10.397 120.386,10.638 120.391 C 10.879 120.396,11.402 120.040,11.800 119.600 C 12.712 118.592,12.488 118.592,11.200 119.600 M7.269 125.300 C 6.928 126.554,7.938 128.787,8.323 127.631 C 8.402 127.394,8.857 127.179,9.333 127.154 C 9.990 127.118,10.033 127.063,9.513 126.927 C 9.107 126.820,8.721 126.184,8.569 125.373 C 8.245 123.646,7.727 123.617,7.269 125.300 M395.196 135.208 C 394.958 135.653,394.872 136.193,395.005 136.408 C 395.138 136.624,395.057 136.800,394.824 136.800 C 394.591 136.800,394.400 136.608,394.400 136.374 C 394.400 135.848,395.154 134.400,395.428 134.400 C 395.538 134.400,395.433 134.764,395.196 135.208 M1.628 140.700 C 1.606 141.724,1.430 142.000,0.800 142.000 C 0.119 142.000,0.000 142.267,0.000 143.800 C 0.000 146.266,1.577 146.555,1.636 144.100 L 1.672 142.600 2.056 143.934 C 2.493 145.449,1.989 146.400,0.751 146.400 C 0.338 146.400,0.000 146.580,0.000 146.800 C 0.000 147.506,1.573 147.227,2.430 146.370 C 3.334 145.466,3.257 143.743,2.179 140.820 L 1.656 139.400 1.628 140.700 M397.994 141.807 C 397.440 142.474,396.733 145.688,397.204 145.398 C 397.365 145.298,397.643 144.628,397.822 143.908 L 398.147 142.600 398.298 144.100 C 398.566 146.777,400.000 146.187,400.000 143.400 C 400.000 141.060,399.165 140.396,397.994 141.807 M0.000 253.600 C 0.000 253.820,0.439 254.000,0.976 254.000 C 2.273 254.000,2.519 254.504,2.051 256.199 C 1.590 257.868,2.081 257.737,2.801 255.998 C 3.239 254.941,3.211 254.675,2.591 253.990 C 1.852 253.173,0.000 252.894,0.000 253.600 M397.189 254.421 C 396.947 254.872,396.806 255.514,396.875 255.846 C 396.944 256.179,397.198 255.809,397.440 255.025 C 397.935 253.423,397.842 253.200,397.189 254.421 M398.270 255.361 C 398.001 256.064,398.323 256.400,399.267 256.400 C 399.733 256.400,400.000 256.109,400.000 255.600 C 400.000 254.668,398.610 254.476,398.270 255.361 M0.000 258.800 C 0.000 259.333,0.267 259.600,0.800 259.600 C 1.333 259.600,1.600 259.333,1.600 258.800 C 1.600 258.267,1.333 258.000,0.800 258.000 C 0.267 258.000,0.000 258.267,0.000 258.800 M398.200 260.800 C 398.336 261.020,398.797 261.200,399.224 261.200 C 399.651 261.200,400.000 261.020,400.000 260.800 C 400.000 260.580,399.539 260.400,398.976 260.400 C 398.396 260.400,398.060 260.573,398.200 260.800 M394.830 264.381 C 394.447 264.618,394.463 264.739,394.903 264.907 C 395.216 265.028,395.696 264.988,395.970 264.819 C 396.353 264.582,396.337 264.461,395.897 264.293 C 395.584 264.172,395.104 264.212,394.830 264.381 M394.000 265.686 C 394.000 266.988,396.115 267.320,396.586 266.091 C 396.808 265.513,396.756 265.516,396.095 266.114 C 395.403 266.740,395.311 266.740,394.678 266.106 C 394.305 265.733,394.000 265.544,394.000 265.686 M390.630 272.424 C 390.207 272.851,390.072 273.200,390.330 273.200 C 390.589 273.200,390.819 273.785,390.841 274.500 L 390.883 275.800 391.289 274.268 C 391.656 272.883,391.795 272.760,392.747 272.979 L 393.800 273.221 392.800 272.419 C 391.593 271.452,391.594 271.452,390.630 272.424 M392.101 275.000 C 392.105 275.880,392.187 276.193,392.283 275.695 C 392.379 275.198,392.375 274.478,392.275 274.095 C 392.175 273.713,392.096 274.120,392.101 275.000 M8.600 277.200 C 8.202 277.640,8.078 278.000,8.324 278.000 C 8.570 278.000,8.965 277.640,9.200 277.200 C 9.435 276.760,9.560 276.400,9.476 276.400 C 9.392 276.400,8.998 276.760,8.600 277.200 M10.430 282.381 C 10.047 282.618,10.063 282.739,10.503 282.907 C 10.816 283.028,11.296 282.988,11.570 282.819 C 11.953 282.582,11.937 282.461,11.497 282.293 C 11.184 282.172,10.704 282.212,10.430 282.381 M13.738 287.005 C 13.483 287.552,13.438 288.000,13.638 288.000 C 14.330 288.000,13.996 289.200,13.300 289.213 C 12.663 289.224,12.669 289.278,13.367 289.806 C 14.353 290.552,15.202 289.922,15.194 288.451 C 15.189 287.666,15.096 287.545,14.825 287.974 C 14.556 288.399,14.428 288.220,14.331 287.279 L 14.200 286.011 13.738 287.005 M30.000 309.310 C 30.000 309.485,29.640 309.435,29.200 309.200 C 28.760 308.965,28.400 308.597,28.400 308.383 C 28.400 308.167,28.757 308.216,29.200 308.493 C 29.640 308.768,30.000 309.135,30.000 309.310 M46.788 338.022 C 46.546 338.474,46.436 339.059,46.542 339.322 C 46.651 339.590,46.751 339.502,46.768 339.123 C 46.786 338.750,47.200 338.165,47.689 337.823 C 48.402 337.323,48.445 337.200,47.903 337.200 C 47.532 337.200,47.030 337.570,46.788 338.022 M351.429 339.029 C 350.917 339.541,350.841 339.814,351.181 339.927 C 351.450 340.017,351.855 339.906,352.080 339.680 C 352.305 339.455,352.417 339.050,352.327 338.781 C 352.214 338.441,351.941 338.517,351.429 339.029 M352.200 340.551 C 351.384 341.343,351.267 341.577,351.833 341.280 C 352.704 340.824,353.828 339.652,353.557 339.482 C 353.471 339.428,352.860 339.909,352.200 340.551 M339.029 351.429 C 338.517 351.941,338.441 352.214,338.781 352.327 C 339.050 352.417,339.455 352.305,339.680 352.080 C 339.906 351.855,340.017 351.450,339.927 351.181 C 339.814 350.841,339.541 350.917,339.029 351.429 M340.346 352.416 C 339.766 353.067,339.424 353.600,339.584 353.600 C 339.893 353.600,340.885 352.540,341.363 351.700 C 341.815 350.905,341.481 351.140,340.346 352.416 M62.584 353.227 C 62.160 353.913,62.539 353.980,63.377 353.367 C 64.026 352.893,64.046 352.800,63.500 352.800 C 63.141 352.800,62.729 352.992,62.584 353.227 M87.284 371.839 C 86.863 372.297,86.864 372.400,87.289 372.400 C 87.576 372.400,87.990 372.805,88.209 373.300 C 88.559 374.092,89.756 374.355,90.357 373.772 C 90.684 373.455,89.471 372.400,88.780 372.400 C 88.383 372.400,88.000 372.148,87.929 371.839 C 87.818 371.358,87.727 371.358,87.284 371.839 M96.514 377.842 C 96.027 378.369,95.789 378.800,95.986 378.800 C 96.456 378.800,97.600 377.645,97.600 377.171 C 97.600 376.688,97.558 376.713,96.514 377.842 M99.129 379.336 C 98.760 379.616,98.582 380.047,98.734 380.293 C 98.906 380.571,99.182 380.374,99.467 379.770 C 99.719 379.236,99.897 378.806,99.862 378.813 C 99.828 378.820,99.498 379.055,99.129 379.336 M104.687 382.518 C 104.569 382.825,104.808 383.061,105.274 383.096 C 105.916 383.144,105.972 383.049,105.581 382.577 C 104.995 381.871,104.937 381.867,104.687 382.518 M110.439 385.353 C 109.980 385.906,111.013 386.720,111.524 386.209 C 111.639 386.094,111.529 386.000,111.279 386.000 C 111.029 386.000,110.929 385.730,111.055 385.400 C 111.344 384.649,111.042 384.626,110.439 385.353 M272.293 390.799 C 271.643 391.559,271.639 391.688,272.242 392.609 C 273.059 393.855,273.282 393.866,272.976 392.647 C 272.766 391.810,272.922 391.645,274.268 391.289 L 275.800 390.883 274.533 390.841 C 273.837 390.819,273.205 390.616,273.130 390.391 C 273.055 390.166,272.679 390.349,272.293 390.799 M274.305 392.283 C 274.802 392.379,275.522 392.375,275.905 392.275 C 276.287 392.175,275.880 392.096,275.000 392.101 C 274.120 392.105,273.807 392.187,274.305 392.283 M266.106 394.678 C 266.740 395.311,266.740 395.403,266.114 396.095 C 265.516 396.756,265.513 396.808,266.091 396.586 C 267.320 396.115,266.988 394.000,265.686 394.000 C 265.544 394.000,265.733 394.305,266.106 394.678 M136.800 394.824 C 136.800 395.057,136.624 395.138,136.408 395.005 C 136.193 394.872,135.608 394.961,135.108 395.204 C 134.238 395.626,134.232 395.618,134.976 395.022 C 135.870 394.306,136.800 394.205,136.800 394.824 M264.293 394.903 C 264.172 395.216,264.212 395.696,264.381 395.970 C 264.618 396.353,264.739 396.337,264.907 395.897 C 265.028 395.584,264.988 395.104,264.819 394.830 C 264.582 394.447,264.461 394.463,264.293 394.903 M143.921 397.180 C 140.435 397.857,140.040 400.000,143.400 400.000 C 146.187 400.000,146.777 398.566,144.100 398.298 L 142.600 398.147 143.908 397.822 C 144.628 397.643,145.314 397.340,145.432 397.148 C 145.550 396.957,145.592 396.821,145.524 396.846 C 145.456 396.871,144.734 397.021,143.921 397.180 M254.176 397.430 C 253.749 397.776,253.639 397.937,253.931 397.787 C 254.224 397.637,254.944 397.369,255.531 397.191 C 256.389 396.933,256.437 396.862,255.776 396.834 C 255.324 396.815,254.604 397.083,254.176 397.430 M255.300 398.287 C 254.457 398.590,254.704 400.000,255.600 400.000 C 256.125 400.000,256.400 399.733,256.400 399.224 C 256.400 398.342,256.029 398.026,255.300 398.287 M260.400 398.976 C 260.400 399.539,260.580 400.000,260.800 400.000 C 261.020 400.000,261.200 399.651,261.200 399.224 C 261.200 398.797,261.020 398.336,260.800 398.200 C 260.573 398.060,260.400 398.396,260.400 398.976 " stroke="none" fill="#052df5" fill-rule="evenodd"></path></g></svg>